<svg width="127" height="121" viewBox="0 0 127 121" fill="none" xmlns="http://www.w3.org/2000/svg">
<path d="M125.5 60.5C125.5 93.0172 97.8109 119.5 63.5 119.5C29.1891 119.5 1.5 93.0172 1.5 60.5C1.5 27.9828 29.1891 1.5 63.5 1.5C97.8109 1.5 125.5 27.9828 125.5 60.5Z" stroke="white" stroke-width="3"/>
<path d="M82.1166 63.875L84.3983 52.6545H70.1322V45.3731C70.1322 42.3034 72.1251 39.3111 78.5144 39.3111H85V29.758C85 29.758 79.1145 29 73.4873 29C61.7388 29 54.0594 34.3741 54.0594 44.1028V52.6545H41V63.875H54.0594V91H70.1322V63.875H82.1166Z" fill="#FFFCFC"/>
</svg>
