<svg width="127" height="121" viewBox="0 0 127 121" fill="none" xmlns="http://www.w3.org/2000/svg">
<path d="M125.5 60.5C125.5 93.0172 97.8109 119.5 63.5 119.5C29.1891 119.5 1.5 93.0172 1.5 60.5C1.5 27.9828 29.1891 1.5 63.5 1.5C97.8109 1.5 125.5 27.9828 125.5 60.5Z" stroke="white" stroke-width="3"/>
<path d="M63.5055 48.2062C56.5531 48.2062 50.9453 53.4718 50.9453 60C50.9453 66.5282 56.5531 71.7938 63.5055 71.7938C70.4578 71.7938 76.0656 66.5282 76.0656 60C76.0656 53.4718 70.4578 48.2062 63.5055 48.2062ZM63.5055 67.6675C59.0127 67.6675 55.3397 64.2289 55.3397 60C55.3397 55.7711 59.0017 52.3325 63.5055 52.3325C68.0092 52.3325 71.6712 55.7711 71.6712 60C71.6712 64.2289 67.9983 67.6675 63.5055 67.6675V67.6675ZM79.509 47.7238C79.509 49.2532 78.1973 50.4746 76.5794 50.4746C74.9506 50.4746 73.6498 49.2429 73.6498 47.7238C73.6498 46.2046 74.9616 44.9729 76.5794 44.9729C78.1973 44.9729 79.509 46.2046 79.509 47.7238ZM87.8278 50.5157C87.642 46.8307 86.7456 43.5667 83.8707 40.8774C81.0066 38.1881 77.5305 37.3464 73.6061 37.1617C69.5615 36.9461 57.4385 36.9461 53.3939 37.1617C49.4805 37.3362 46.0043 38.1778 43.1293 40.8671C40.2544 43.5564 39.3689 46.8205 39.1722 50.5054C38.9426 54.3032 38.9426 65.6865 39.1722 69.4843C39.358 73.1692 40.2544 76.4333 43.1293 79.1226C46.0043 81.8119 49.4695 82.6536 53.3939 82.8383C57.4385 83.0539 69.5615 83.0539 73.6061 82.8383C77.5305 82.6638 81.0066 81.8222 83.8707 79.1226C86.7347 76.4333 87.6311 73.1692 87.8278 69.4843C88.0574 65.6865 88.0574 54.3135 87.8278 50.5157V50.5157ZM82.6026 73.5593C81.75 75.5711 80.0993 77.1211 77.9458 77.9319C74.7211 79.1329 67.0691 78.8557 63.5055 78.8557C59.9418 78.8557 52.2789 79.1226 49.0651 77.9319C46.9225 77.1313 45.2719 75.5814 44.4083 73.5593C43.1293 70.5313 43.4245 63.3462 43.4245 60C43.4245 56.6538 43.1403 49.4584 44.4083 46.4407C45.261 44.4289 46.9116 42.8789 49.0651 42.0681C52.2898 40.8671 59.9418 41.1443 63.5055 41.1443C67.0691 41.1443 74.732 40.8774 77.9458 42.0681C80.0884 42.8687 81.739 44.4186 82.6026 46.4407C83.8816 49.4687 83.5864 56.6538 83.5864 60C83.5864 63.3462 83.8816 70.5416 82.6026 73.5593Z" fill="white"/>
</svg>
