<svg width="127" height="121" viewBox="0 0 127 121" fill="none" xmlns="http://www.w3.org/2000/svg">
<path d="M125.5 60.5C125.5 93.0172 97.8109 119.5 63.5 119.5C29.1891 119.5 1.5 93.0172 1.5 60.5C1.5 27.9828 29.1891 1.5 63.5 1.5C97.8109 1.5 125.5 27.9828 125.5 60.5Z" stroke="white" stroke-width="3"/>
<path d="M83.6548 50.2234C83.6878 50.6498 83.6878 51.0762 83.6878 51.5026C83.6878 64.5076 72.9645 79.4924 53.3655 79.4924C47.3274 79.4924 41.7183 77.8781 37 75.0762C37.8579 75.1675 38.6827 75.198 39.5736 75.198C44.5557 75.198 49.1421 73.6447 52.8045 70.995C48.1193 70.9036 44.1929 68.0711 42.84 64.1726C43.5 64.2639 44.1599 64.3249 44.8528 64.3249C45.8096 64.3249 46.7666 64.203 47.6574 63.9899C42.7741 63.0761 39.1116 59.1168 39.1116 54.3351V54.2133C40.5303 54.9442 42.1802 55.4011 43.9288 55.4619C41.0582 53.6954 39.1776 50.6802 39.1776 47.269C39.1776 45.4417 39.7054 43.7665 40.6293 42.3046C45.8755 48.2741 53.7614 52.1725 62.6039 52.599C62.439 51.868 62.3399 51.1067 62.3399 50.3453C62.3399 44.9239 67.0912 40.5077 72.9973 40.5077C76.0658 40.5077 78.8374 41.6955 80.7841 43.6143C83.1927 43.1879 85.5023 42.3655 87.5481 41.2387C86.7561 43.523 85.0734 45.4418 82.8628 46.6599C85.0075 46.4468 87.0862 45.8985 88.9998 45.1372C87.5483 47.0863 85.7334 48.8223 83.6548 50.2234V50.2234Z" fill="white"/>
</svg>
